# WaveFront *.obj file (generated by Autodesk ATF)

mtllib d6eec62d-4e8f-497e-a8fe-bd5e0abad812.mtl

g Body2

v 134.999998 80.000000 83.000000
v 129.000000 80.000000 83.000000
v 129.000000 80.000000 0.000000
v 134.999998 80.000000 0.000000
v 129.000000 189.000000 0.000000
v -0.000000 189.000000 0.000000
v -0.000000 0.000000 0.000000
v 129.000000 0.000000 0.000000
v 129.000000 27.500000 0.000000
v 134.999998 27.500000 0.000000
v 134.999998 -5.000000 -6.000000
v -5.000000 -5.000000 -6.000000
v -5.000000 194.999997 -6.000000
v 134.999998 194.999997 -6.000000
v -0.000000 0.000000 93.000000
v 129.000000 0.000000 93.000000
v 129.000000 27.500000 83.000000
v 134.999998 27.500000 83.000000
v 134.999998 -5.000000 93.000000
v -5.000000 -5.000000 93.000000
v -5.000000 194.999997 93.000000
v 134.999998 194.999997 93.000000
v 134.999998 18.954929 83.000000
v 134.999998 18.954929 93.000000
v 134.999998 89.999999 93.000000
v 134.999998 89.999999 83.000000
v 129.000000 189.000000 93.000000
v -0.000000 189.000000 93.000000
v 135.000000 89.999999 83.000000
v 135.000000 18.954929 83.000000
v 135.000000 89.999999 93.000000
v 135.000000 18.954929 93.000000
v 129.000000 18.954929 93.000000
v 129.000000 89.999999 93.000000
v 129.000000 80.000000 93.000000
v 129.000000 27.500000 93.000000
vt 15.239995 210.820000 0.000000
vt 0.000000 210.820000 0.000000
vt 15.239995 0.000000 0.000000
vt 0.000000 0.000000 0.000000
vt 177.799997 -171.449997 0.000000
vt 177.799997 -38.099996 0.000000
vt 162.560002 -171.449996 0.000000
vt 162.560002 -38.099996 0.000000
vt -165.099998 -241.299996 0.000000
vt -165.099998 238.760004 0.000000
vt 162.560002 238.760004 0.000000
vt 162.560002 -241.299996 0.000000
vt -177.799997 -253.999996 0.000000
vt 177.799997 -253.999996 0.000000
vt -177.799997 253.999996 0.000000
vt 177.799997 253.999996 0.000000
vt -0.000000 0.000000 0.000000
vt 327.660000 0.000000 0.000000
vt -0.000000 236.220000 0.000000
vt 327.660000 236.220000 0.000000
vt 15.239995 210.820000 0.000000
vt 0.000000 210.820000 0.000000
vt 15.239995 0.000000 0.000000
vt 0.000000 0.000000 0.000000
vt 355.599995 236.220000 0.000000
vt 0.000000 236.220000 0.000000
vt 355.599995 -15.240000 0.000000
vt 0.000000 -15.240000 0.000000
vt 507.999992 236.220000 0.000000
vt 0.000000 236.220000 0.000000
vt 507.999992 -15.240000 0.000000
vt -0.000000 -15.240000 0.000000
vt 355.599995 236.220000 0.000000
vt 0.000000 236.220000 0.000000
vt 355.599995 -15.240000 0.000000
vt 0.000000 -15.240000 0.000000
vt -155.054482 236.220000 0.000000
vt -215.900000 236.220000 0.000000
vt -155.054482 210.820000 0.000000
vt -215.900000 -15.240000 0.000000
vt -133.350001 0.000000 0.000000
vt 0.000000 0.000000 0.000000
vt 292.099993 -15.240000 0.000000
vt 25.399997 210.820000 0.000000
vt 292.099993 236.220000 0.000000
vt 25.399997 236.220000 0.000000
vt 0.000000 210.820000 0.000000
vt -133.350001 210.820000 0.000000
vt 0.000000 0.000000 0.000000
vt 327.660000 0.000000 0.000000
vt 0.000000 236.220000 0.000000
vt 327.660000 236.220000 0.000000
vt 0.000000 0.000000 0.000000
vt 480.060000 0.000000 0.000000
vt 0.000000 236.220000 0.000000
vt 480.060000 236.220000 0.000000
vt 0.000000 15.239995 0.000000
vt 21.704480 15.239995 0.000000
vt -0.000000 15.240000 0.000000
vt 155.054482 15.239995 0.000000
vt 180.454478 15.240000 0.000000
vt 180.454478 15.239995 0.000000
vt 21.704482 -0.000000 0.000000
vt 155.054482 -0.000000 0.000000
vt 0.000000 15.239995 0.000000
vt 25.400000 15.239995 0.000000
vt 0.000000 15.240000 0.000000
vt 25.400000 15.240000 0.000000
vt 0.000000 15.239995 0.000000
vt 25.400000 15.239995 0.000000
vt 0.000000 15.240000 0.000000
vt 25.400000 15.240000 0.000000
vt 180.454478 15.240000 0.000000
vt 158.749997 -0.000000 0.000000
vt 180.454478 15.239995 0.000000
vt 180.454478 0.000000 0.000000
vt 228.599997 -0.000000 0.000000
vt 25.399997 -0.000000 0.000000
vt 0.000000 15.240000 0.000000
vt 0.000000 15.239995 0.000000
vt -266.699996 15.239995 0.000000
vt -251.460003 -0.000000 0.000000
vt 0.000000 0.000000 0.000000
vt -266.699996 -340.360000 0.000000
vt -251.460003 -327.660000 0.000000
vt 241.299996 -340.360000 0.000000
vt 228.599997 -327.660000 0.000000
vt 241.299996 15.239995 0.000000
vt -12.700000 -90.227239 0.000000
vt 12.700000 -90.227239 0.000000
vt -12.700000 90.227239 0.000000
vt 12.700000 90.227239 0.000000
vt 90.227239 12.700000 0.000000
vt 68.522758 12.700000 0.000000
vt 68.522758 -12.700000 0.000000
vt -64.827243 12.700000 0.000000
vt -64.827243 -12.700000 0.000000
vt -90.227239 12.700000 0.000000
vt -341.687243 12.700000 0.000000
vt -341.687243 -223.520000 0.000000
vt -64.827243 -223.520000 0.000000
vt 68.522758 -223.520000 0.000000
vt 138.372758 -223.520000 0.000000
vt 138.372758 12.700000 0.000000
vn -0.000000 -2.540000 0.000000
vn -0.000000 -2.540000 0.000000
vn -0.000000 -2.540000 0.000000
vn -0.000000 -2.540000 0.000000
vn 0.000000 -0.000000 2.540000
vn 0.000000 -0.000000 2.540000
vn 0.000000 -0.000000 2.540000
vn 0.000000 -0.000000 2.540000
vn 0.000000 -0.000000 2.540000
vn 0.000000 -0.000000 2.540000
vn 0.000000 -0.000000 2.540000
vn 0.000000 -0.000000 2.540000
vn 0.000000 0.000000 -2.540000
vn 0.000000 0.000000 -2.540000
vn 0.000000 0.000000 -2.540000
vn 0.000000 0.000000 -2.540000
vn 0.000000 2.540000 0.000000
vn 0.000000 2.540000 0.000000
vn 0.000000 2.540000 0.000000
vn 0.000000 2.540000 0.000000
vn 0.000000 2.540000 0.000000
vn 0.000000 2.540000 0.000000
vn 0.000000 2.540000 0.000000
vn 0.000000 2.540000 0.000000
vn -0.000000 -2.540000 0.000000
vn -0.000000 -2.540000 0.000000
vn -0.000000 -2.540000 0.000000
vn -0.000000 -2.540000 0.000000
vn -2.540000 0.000000 0.000000
vn -2.540000 0.000000 0.000000
vn -2.540000 0.000000 0.000000
vn -2.540000 0.000000 0.000000
vn 0.000000 2.540000 0.000000
vn 0.000000 2.540000 0.000000
vn 0.000000 2.540000 0.000000
vn 0.000000 2.540000 0.000000
vn 2.540000 -0.000000 0.000000
vn 2.540000 -0.000000 0.000000
vn 2.540000 -0.000000 0.000000
vn 2.540000 -0.000000 0.000000
vn 2.540000 -0.000000 0.000000
vn 2.540000 -0.000000 0.000000
vn 2.540000 -0.000000 0.000000
vn 2.540000 -0.000000 0.000000
vn 2.540000 -0.000000 0.000000
vn 2.540000 -0.000000 0.000000
vn 2.540000 -0.000000 0.000000
vn 2.540000 -0.000000 0.000000
vn 0.000000 -2.540000 0.000000
vn 0.000000 -2.540000 0.000000
vn 0.000000 -2.540000 0.000000
vn 0.000000 -2.540000 0.000000
vn 2.540000 -0.000000 0.000000
vn 2.540000 -0.000000 0.000000
vn 2.540000 -0.000000 0.000000
vn 2.540000 -0.000000 0.000000
vn 0.000000 0.000000 -2.540000
vn 0.000000 0.000000 -2.540000
vn 0.000000 0.000000 -2.540000
vn 0.000000 0.000000 -2.540000
vn 0.000000 0.000000 -2.540000
vn 0.000000 0.000000 -2.540000
vn 0.000000 0.000000 -2.540000
vn 0.000000 0.000000 -2.540000
vn 0.000000 2.540000 0.000000
vn 0.000000 2.540000 0.000000
vn 0.000000 2.540000 0.000000
vn 0.000000 2.540000 0.000000
vn 0.000000 -2.540000 0.000000
vn 0.000000 -2.540000 0.000000
vn 0.000000 -2.540000 0.000000
vn 0.000000 -2.540000 0.000000
vn 0.000000 0.000000 2.540000
vn 0.000000 0.000000 2.540000
vn 0.000000 0.000000 2.540000
vn 0.000000 0.000000 2.540000
vn 0.000000 0.000000 2.540000
vn 0.000000 0.000000 2.540000
vn 0.000000 0.000000 2.540000
vn 0.000000 0.000000 2.540000
vn 0.000000 0.000000 2.540000
vn 0.000000 0.000000 2.540000
vn 0.000000 0.000000 2.540000
vn 0.000000 0.000000 2.540000
vn 0.000000 0.000000 2.540000
vn 0.000000 0.000000 2.540000
vn 0.000000 0.000000 2.540000
vn 0.000000 0.000000 2.540000
vn 2.540000 0.000000 0.000000
vn 2.540000 0.000000 0.000000
vn 2.540000 0.000000 0.000000
vn 2.540000 0.000000 0.000000
vn -2.540000 0.000000 0.000000
vn -2.540000 0.000000 0.000000
vn -2.540000 0.000000 0.000000
vn -2.540000 0.000000 0.000000
vn -2.540000 0.000000 0.000000
vn -2.540000 0.000000 0.000000
vn -2.540000 0.000000 0.000000
vn -2.540000 0.000000 0.000000
vn -2.540000 0.000000 0.000000
vn -2.540000 0.000000 0.000000
vn -2.540000 0.000000 0.000000
vn -2.540000 0.000000 0.000000
usemtl Steel_-_Satin
f 1/1/1 2/2/2 4/3/3
f 4/3/3 2/2/2 3/4/4
f 10/5/5 4/6/6 9/7/7
f 9/7/7 4/6/6 3/8/8
f 9/7/7 3/8/8 7/9/9
f 7/9/9 3/8/8 6/10/10
f 6/10/10 3/8/8 5/11/11
f 7/9/9 8/12/12 9/7/7
f 11/13/13 12/14/14 14/15/15
f 14/15/15 12/14/14 13/16/16
f 8/17/17 7/18/18 16/19/19
f 16/19/19 7/18/18 15/20/20
f 17/21/21 18/22/22 9/23/23
f 9/23/23 18/22/22 10/24/24
f 19/25/25 20/26/26 11/27/27
f 11/27/27 20/26/26 12/28/28
f 20/29/29 21/30/30 12/31/31
f 12/31/31 21/30/30 13/32/32
f 21/33/33 22/34/34 13/35/35
f 13/35/35 22/34/34 14/36/36
f 24/37/37 19/38/38 23/39/39
f 23/39/39 19/38/38 11/40/40
f 23/39/39 11/40/40 10/41/41
f 10/41/41 11/40/40 4/42/42
f 4/42/42 11/40/40 14/43/43
f 4/42/42 14/43/43 26/44/44
f 26/44/44 14/43/43 22/45/45
f 26/44/44 22/45/45 25/46/46
f 26/44/44 1/47/47 4/42/42
f 10/41/41 18/48/48 23/39/39
f 6/49/49 5/50/50 28/51/51
f 28/51/51 5/50/50 27/52/52
f 7/53/53 6/54/54 15/55/55
f 15/55/55 6/54/54 28/56/56
f 23/57/57 18/58/58 30/59/59
f 30/59/59 18/58/58 1/60/60
f 30/59/59 1/60/60 29/61/61
f 29/61/61 1/60/60 26/62/62
f 18/58/58 17/63/63 1/60/60
f 1/60/60 17/63/63 2/64/64
f 26/65/65 25/66/66 29/67/67
f 29/67/67 25/66/66 31/68/68
f 24/69/69 23/70/70 32/71/71
f 32/71/71 23/70/70 30/72/72
f 32/73/73 36/74/74 24/75/75
f 24/75/75 36/74/74 33/76/76
f 24/75/75 33/76/76 16/77/77
f 36/74/74 32/73/73 35/78/78
f 35/78/78 32/73/73 31/79/79
f 35/78/78 31/79/79 25/80/80
f 22/81/81 27/82/82 25/80/80
f 25/80/80 27/82/82 34/83/83
f 25/80/80 34/83/83 35/78/78
f 22/81/81 21/84/84 27/82/82
f 27/82/82 21/84/84 28/85/85
f 28/85/85 21/84/84 20/86/86
f 28/85/85 20/86/86 15/87/87
f 15/87/87 20/86/86 16/77/77
f 16/77/77 20/86/86 19/88/88
f 16/77/77 19/88/88 24/75/75
f 32/89/89 30/90/90 31/91/91
f 31/91/91 30/90/90 29/92/92
f 33/93/93 36/94/94 17/95/95
f 17/95/95 36/94/94 35/96/96
f 17/95/95 35/96/96 2/97/97
f 2/97/97 35/96/96 34/98/98
f 2/97/97 34/98/98 27/99/99
f 27/99/99 5/100/100 2/97/97
f 2/97/97 5/100/100 3/101/101
f 9/102/102 8/103/103 17/95/95
f 17/95/95 8/103/103 16/104/104
f 17/95/95 16/104/104 33/93/93

# 36 vertices
# 104 texture params
# 104 normals
# 72 facets

# 1 groups
